<svg width="128" height="128" viewBox="0 0 128 128" fill="none" xmlns="http://www.w3.org/2000/svg">
  <path
    d="M33 25H77C82.5 25 86 28.5 86 34V42.5L75.5 49V41C75.5 37.8 73.7 36 70.5 36H38.5C35.3 36 33.5 37.8 33.5 41V87C33.5 90.2 35.3 92 38.5 92H70.5C73.7 92 75.5 90.2 75.5 87V79L86 86.5V94C86 99.5 82.5 103 77 103H33C27.5 103 24 99.5 24 94V34C24 28.5 27.5 25 33 25Z"
    fill="#284436"
  />
  <path
    d="M86.4 39.7L112.2 27.4C114.1 26.5 116.1 28.3 115.3 30.3L103.6 61.6C103.3 62.5 102.6 63.1 101.8 63.4L70.5 75.4C68.5 76.2 66.8 74.1 67.7 72.2L80.1 46.5C80.7 45.3 81.4 44.4 82.6 43.8L86.4 39.7Z"
    fill="#284436"
  />
  <path
    d="M102 70.6L120.2 61.7C122.1 60.8 124.1 62.5 123.4 64.6L116.1 85.4C115.5 87.1 113.6 87.9 112 87L93.8 76.8C91.9 75.7 92 72.9 94 71.9L102 70.6Z"
    fill="#284436"
  />
  <path
    d="M67.3 79.4L87.2 73.8C89.2 73.2 90.8 75.3 89.8 77.1L78.6 98C77.7 99.7 75.3 99.9 74.2 98.4L59.7 84C58.2 82.5 59.9 79.8 62 80.2L67.3 79.4Z"
    fill="#705C30"
  />
  <path
    d="M94.3 93.6L103 84.9C104.1 83.8 105.8 83.8 106.9 84.9L116.1 94.1C117.2 95.2 117.2 96.9 116.1 98L106.9 107.2C105.8 108.3 104.1 108.3 103 107.2L93.8 98C92.7 96.9 92.7 95.2 93.8 94.1L94.3 93.6Z"
    fill="#284436"
  />
</svg>
